<svg xmlns="http://www.w3.org/2000/svg" version="1.1" xmlns:xlink="http://www.w3.org/1999/xlink" xmlns:svgjs="http://svgjs.dev/svgjs" width="128" height="128" viewBox="0 0 128 128"><g transform="matrix(0.5508021390374331,0,0,0.5508021390374331,28.739070030967916,12.333870967741937)"><svg viewBox="0 0 106 155" data-background-color="#ffffff" preserveAspectRatio="xMidYMid meet" height="187" width="128" xmlns="http://www.w3.org/2000/svg" xmlns:xlink="http://www.w3.org/1999/xlink"><g id="tight-bounds" transform="matrix(1,0,0,1,0.014423076923080203,0.25)"><svg viewBox="0 0 105.97115384615385 154.5" height="154.5" width="105.97115384615385"><g><svg viewBox="0 0 105.97115384615385 154.5" height="154.5" width="105.97115384615385"><g><svg viewBox="0 0 105.97115384615385 154.5" height="154.5" width="105.97115384615385"><g id="textblocktransform"><svg viewBox="0 0 105.97115384615385 154.5" height="154.5" width="105.97115384615385" id="textblock"><g><svg viewBox="0 0 105.97115384615385 154.5" height="154.5" width="105.97115384615385"><g transform="matrix(1,0,0,1,0,0)"><svg width="105.97115384615385" viewBox="4.45 -30.95 21.400000000000002 31.2" height="154.5" data-palette-color="#233565"><path d="M13.6-10.85L4.45-10.85 4.45-28.2Q4.45-29 4.88-29.43 5.3-29.85 6.1-30.1L6.1-30.1Q7.55-30.55 9.63-30.75 11.7-30.95 13.65-30.95L13.65-30.95Q20-30.95 22.93-28.28 25.85-25.6 25.85-21.05L25.85-21.05Q25.85-17.95 24.53-15.65 23.2-13.35 20.5-12.1 17.8-10.85 13.6-10.85L13.6-10.85ZM6.65 0.25L6.65 0.25Q5.55 0.25 5-0.2 4.45-0.65 4.45-1.6L4.45-1.6 4.45-12.8 8.55-12.8 8.55-0.1Q8.25 0 7.75 0.13 7.25 0.25 6.65 0.25ZM8.5-27.1L8.5-14.25 13.35-14.25Q17.35-14.25 19.55-15.93 21.75-17.6 21.75-21L21.75-21Q21.75-24.4 19.63-25.98 17.5-27.55 13.55-27.55L13.55-27.55Q12.2-27.55 10.88-27.43 9.55-27.3 8.5-27.1L8.5-27.1Z" opacity="1" transform="matrix(1,0,0,1,0,0)" fill="#233565" class="wordmark-text-0" data-fill-palette-color="primary" id="text-0"></path></svg></g></svg></g></svg></g></svg></g></svg></g><defs></defs></svg><rect width="105.97115384615385" height="154.5" fill="none" stroke="none" visibility="hidden"></rect></g></svg></g></svg>